PathFileType	4	(X/Y/Z)	Patient4_TMGait_0pt6_01_left_34.trc.trc
DataRate	CameraRate	NumFrames	NumMarkers	Units	OrigDataRate	OrigDataStartFrame	OrigNumFrames
85.889570552147	85.889570552147	5	33	mm	85.889570552147	53	       141
Frame#	Time	Sacral			L.Shoulder			Chest			R.Shoulder			Neck			R.ASIS			L.ASIS			R.Thigh.Superior			R.Thigh.Lateral			R.Thigh.Inferior			R.Patella			L.Thigh.Superior			L.Thigh.Lateral			L.Thigh.Inferior			L.Patella			L.Shank.Superior			L.Shank.Lateral			L.Shank.Inferior			R.Shank.Superior			R.Shank.Lateral			R.Shank.Inferior			R.Heel			R.Midfoot.Superior			R.Midfoot.Lateral			R.Toe			L.Heel			L.Midfoot.Lateral			L.Midfoot.Superior			L.Toe			L.Elbow			L.Wrist			R.Elbow			R.Wrist			
		X1	Y1	Z1	X2	Y2	Z2	X3	Y3	Z3	X4	Y4	Z4	X5	Y5	Z5	X6	Y6	Z6	X7	Y7	Z7	X8	Y8	Z8	X9	Y9	Z9	X10	Y10	Z10	X11	Y11	Z11	X12	Y12	Z12	X13	Y13	Z13	X14	Y14	Z14	X15	Y15	Z15	X16	Y16	Z16	X17	Y17	Z17	X18	Y18	Z18	X19	Y19	Z19	X20	Y20	Z20	X21	Y21	Z21	X22	Y22	Z22	X23	Y23	Z23	X24	Y24	Z24	X25	Y25	Z25	X26	Y26	Z26	X27	Y27	Z27	X28	Y28	Z28	X29	Y29	Z29	X30	Y30	Z30	X31	Y31	Z31	X32	Y32	Z32	X33	Y33	Z33	

53	41.995428571429	753.458629167793	1009.936925701547	428.171458755862	929.194701962630	1441.013175815994	261.618293710526	1028.058034201194	1371.441616794167	424.238710268612	937.187637003830	1437.570913425218	596.733650294777	903.862917727141	1498.375632018561	415.660974827039	976.190351688885	945.694149038535	554.828872782337	977.299548100546	966.067128079003	280.243438751607	1055.942357503402	769.431948639758	524.802781003131	1009.110402279726	648.638933332834	593.520622601906	1100.366282957590	607.091530105644	516.554487465647	1113.134473759068	491.390415877266	537.144046035502	1019.675521898727	748.579530100211	313.284823345115	927.785529991905	635.416471993307	255.023087193317	1005.772982198665	555.352171212204	322.672061968959	1002.665743600148	485.491205926627	335.390409396148	973.444399927313	414.143563081999	327.845562123498	882.669869731284	302.648418792630	274.212313932738	921.360462359750	191.331365348612	351.290571255718	1030.937882426651	421.742003296948	542.007658630625	905.393728573237	393.138539423139	599.666406049239	882.177022664049	286.411930668788	549.987599731008	678.720246578839	247.500754620254	517.800660689802	836.768089973891	165.978903404376	559.748540534560	727.269630656343	178.135834966903	589.932836594203	886.042320809751	45.110547681212	583.070750697165	784.913153769524	38.883682311519	389.231435257650	862.098811955662	35.628710154116	311.461137079039	944.358691877216	95.882699570654	341.736973441806	1074.097566474205	41.717925752559	318.196901842661	943.506419436393	1093.141374459284	122.406753745163	1139.898492223464	922.439727997253	146.226660662763	919.217802694102	1081.962337450217	699.567557706742	1045.440903941997	854.255972358953	677.820618944721	
54	42.007071428571	752.935259082897	1010.493409922127	426.980453356509	930.007149686489	1441.876050319681	261.404059647978	1027.655009995249	1371.980888984142	424.592950119715	935.606915921132	1437.747852579463	596.564515911082	903.734581806579	1498.966398710097	415.496428302518	975.326001844018	946.952175073748	554.626875574964	977.603097269611	966.593274210994	279.901202332970	1057.737446909644	773.430541013005	523.969598727057	1013.717568932302	651.929162233468	593.245395831780	1105.396338747031	611.962591619353	515.904061840940	1120.757579046844	496.540602977251	536.690937889370	1017.441154553728	747.722825018166	313.451352610448	924.103444910944	635.547763649207	254.832685314715	1000.562201808501	554.578461312063	322.832752784280	996.505624832835	484.936724874083	335.593977136118	967.304553466675	413.943540663548	327.799827190710	876.311787739976	302.677355144709	274.090496979437	914.625527344955	191.305366589719	351.305852804670	1040.061927486332	425.303490363279	541.689015719730	915.276601320710	393.633915118378	599.209380232673	894.777423728539	286.299497169026	549.605350440074	692.357517573831	241.797144952354	517.394883172736	852.592638329454	164.881261156533	559.264179699579	742.868488578152	173.836378939936	589.415955406824	905.200449372003	45.730278007100	582.544504786765	777.822730919558	38.913161585888	389.181814812806	855.048241951946	35.622668203658	311.440134710843	937.334878532608	95.896504104377	341.681691083730	1067.046248061856	41.698984445011	318.147000240962	949.722702740033	1094.921925198228	121.178858002507	1152.361344547079	932.080080409848	145.679727814287	910.335913748816	1082.742552477178	699.426083645013	1021.634699035758	846.369567125645	680.061753857052	
55	42.018714285714	752.491452914298	1011.025295239407	425.956677797015	930.928161850854	1442.727037045463	261.305006133606	1027.349263898356	1372.466384918966	425.043107919450	934.142395075810	1437.900681747628	596.475761965391	903.679838874723	1499.506628947419	415.457909170854	974.481547266116	948.127956846404	554.486210907571	977.793144059009	967.015263580412	279.701828804774	1059.303785072025	777.188901290926	523.372485925344	1017.879398003920	655.082982505195	593.124586041060	1109.850917320661	616.564692158045	515.382214870317	1127.725367712471	501.620350757708	536.371682742470	1015.040768169521	746.819581602063	313.844426735028	920.312869282461	635.692706747537	254.674112748507	995.126507045806	553.805462544306	323.086696561848	990.094806908885	484.411646198918	335.829360153454	960.979527317314	413.776546680544	327.771957675958	869.815628599900	302.706059949535	273.981418016811	907.803061605377	191.294412380436	351.334973742634	1048.837511767445	428.660432915264	541.539897907821	925.110738978625	393.312866013700	599.028987948583	907.823426542066	285.355351910542	549.477008982235	706.759736933337	234.337979894719	517.385482752336	869.457407113217	162.803236580949	559.057208964600	759.568843345336	168.082759704249	589.297757997415	925.956003844909	45.719744058174	582.307810549366	770.728275314824	38.930263924641	389.143158411004	847.988517110452	35.611260288627	311.426874627969	930.297053699578	95.911266887846	341.635596997310	1059.987267204772	41.698278774645	318.108928169341	955.701076950180	1096.808548458254	120.097149396520	1164.354715973552	942.156070539764	145.257746251067	901.194311446244	1083.813071144479	699.463791554336	998.098888210973	840.416458343552	682.021039687029	
56	42.030357142857	752.111184620610	1011.497055429479	425.087038727660	931.945094492054	1443.513347011936	261.321516448852	1027.139405718463	1372.858168531295	425.586994933199	932.801500800988	1438.001574975837	596.468615217464	903.699438955011	1499.962234052105	415.532131996430	973.664038145042	949.173058748001	554.409798779021	977.863216384785	967.301946958971	279.647454162666	1060.633869102369	780.627530160082	522.976789366975	1021.593470486061	658.015666621431	593.144743865973	1113.716081960085	620.802417495705	514.965474910114	1134.010017328993	506.533540132112	536.175043775733	1012.507857721443	745.860291256334	314.431595026628	916.450248272730	635.831510467576	254.531630304962	989.529882292258	553.024266659250	323.397343668173	983.514771683143	483.906909783748	336.066069329070	954.531668583885	413.622915063620	327.748997595158	863.228169506849	302.725667279795	273.873924040759	900.917090675351	191.285301051293	351.369740833424	1057.226026331359	431.756151226170	541.557607550014	934.886888361918	392.212059523593	599.128539094360	921.254937427312	283.664401504044	549.614581033575	721.939628907954	225.367131686993	517.779929808835	887.240276776760	159.906202886423	559.165160743723	777.295439944609	161.126925400302	589.610929031567	948.060314714467	45.199567294777	582.420374820995	763.637440822540	38.937674286460	389.109649171923	840.923613955962	35.594847624935	311.417715819565	923.249107396086	95.923185364372	341.597797899868	1052.925169172300	41.710227128819	318.081530450876	961.441065157271	1098.740433518949	119.135183679926	1175.854763422892	952.608794753103	144.947508446875	891.788706900696	1085.159452085244	699.662697196380	975.036528096169	836.253288709237	683.686453686413	
57	42.042000000000	751.778648867990	1011.879017420709	424.357414195991	933.039458593531	1444.187073097071	261.453137034793	1027.020878567526	1373.122806349369	426.220911682073	931.591195649621	1438.029184825142	596.544014901048	903.793125851350	1500.304842521880	415.707080304931	972.881608710806	950.049899149329	554.405092061723	977.821985838643	967.432633674471	279.735143045593	1061.714220741937	783.677089312205	522.742992600520	1024.845946979608	660.650878250580	593.289422362664	1116.974144171924	624.591144628654	514.636359868717	1139.579491408418	511.192037269336	536.089841852270	1009.884572518659	744.837764242353	315.165495489064	912.552867760479	635.944400712298	254.397092901267	983.846658118358	552.227269186554	323.730169639046	976.859433084342	483.412486796578	336.280429285007	948.031087883670	413.464379698672	327.723271774095	856.601090803939	302.730438898842	273.761343612457	893.996104534212	191.266187709479	351.403534537355	1065.186593841935	434.546805832506	541.733800326346	944.595954463081	390.384805397468	599.503047210428	935.010583542122	281.330413517129	550.016446700343	737.908063219883	215.129303045306	518.567752971714	905.822573353670	156.378372000882	559.603863251685	795.979900197567	153.228557813971	590.362954184025	971.285142889502	44.355084531531	582.911635165385	756.557066966061	38.939523086552	389.074721754739	833.857553127462	35.574141514579	311.409612123771	916.195570857887	95.928806682056	341.567351608201	1045.863887624462	41.728124449977	318.063558660383	966.955039491661	1100.658695275969	118.273142516146	1186.837985149700	963.365228528138	144.737186320028	882.139737598283	1086.772561740182	699.998891676036	952.597560105701	833.690723013324	685.074502307913	
